<svg xmlns="http://www.w3.org/2000/svg" width="500" height="500"><path vector-effect="non-scaling-stroke" transform="translate(225 225)" d="M8.667 15h30a1 1 0 100-2h-30a1 1 0 100 2z" fill="#fff" id="k7C8Isb8vVPRqifkKXxfj"/><path vector-effect="non-scaling-stroke" transform="translate(225 225)" d="M8.667 37h30a1 1 0 100-2h-30a1 1 0 100 2z" fill="#fff" id="wB1BRZ_CwFGPM6qLTDS_y"/><path vector-effect="non-scaling-stroke" transform="translate(225 225)" d="M8.667 26h30a1 1 0 100-2h-30a1 1 0 100 2z" fill="#fff" id="yENytQ9xj6tTGzuhbVPSf"/><path vector-effect="non-scaling-stroke" transform="translate(237 237)" d="M14.06 13L24.78 2.28a.75.75 0 10-1.06-1.06L13 11.94 2.28 1.22a.75.75 0 10-1.06 1.06L11.94 13 1.22 23.72a.75.75 0 101.06 1.06L13 14.06l10.72 10.72a.747.747 0 001.06 0 .75.75 0 000-1.06L14.06 13z" fill="#fff" id="7K5TSS6tPYZevKPk6sg0b"/></svg>