<?xml version="1.0" encoding="UTF-8" standalone="no" ?>
<!DOCTYPE svg PUBLIC "-//W3C//DTD SVG 1.1//EN" "http://www.w3.org/Graphics/SVG/1.1/DTD/svg11.dtd">
<svg xmlns="http://www.w3.org/2000/svg" xmlns:xlink="http://www.w3.org/1999/xlink" version="1.1" width="500" height="500" viewBox="0 0 500 500" xml:space="preserve">
<desc>Created with Fabric.js 4.6.0</desc>
<defs>
</defs>
<g transform="matrix(1 0 0 1 248.67 239)" id="k7C8Isb8vVPRqifkKXxfj"  >
<path style="stroke: none; stroke-width: 1; stroke-dasharray: none; stroke-linecap: butt; stroke-dashoffset: 0; stroke-linejoin: miter; stroke-miterlimit: 4; fill: rgb(255,255,255); fill-rule: nonzero; opacity: 1;" vector-effect="non-scaling-stroke"  transform=" translate(-23.67, -14)" d="M 8.667 15 L 38.667 15 C 39.219 15 39.667 14.553 39.667 14 C 39.667 13.447 39.219 13 38.667 13 L 8.667000000000002 13 C 8.115000000000002 13 7.667000000000002 13.447 7.667000000000002 14 C 7.667000000000002 14.553 8.114 15 8.667 15 z" stroke-linecap="round" />
</g>
<g transform="matrix(1 0 0 1 248.67 261)" id="wB1BRZ_CwFGPM6qLTDS_y"  >
<path style="stroke: none; stroke-width: 1; stroke-dasharray: none; stroke-linecap: butt; stroke-dashoffset: 0; stroke-linejoin: miter; stroke-miterlimit: 4; fill: rgb(255,255,255); fill-rule: nonzero; opacity: 1;" vector-effect="non-scaling-stroke"  transform=" translate(-23.67, -36)" d="M 8.667 37 L 38.667 37 C 39.219 37 39.667 36.553 39.667 36 C 39.667 35.447 39.219 35 38.667 35 L 8.667000000000002 35 C 8.115000000000002 35 7.667000000000002 35.447 7.667000000000002 36 C 7.667000000000002 36.553 8.114 37 8.667 37 z" stroke-linecap="round" />
</g>
<g transform="matrix(1 0 0 1 248.67 250)" id="yENytQ9xj6tTGzuhbVPSf"  >
<path style="stroke: none; stroke-width: 1; stroke-dasharray: none; stroke-linecap: butt; stroke-dashoffset: 0; stroke-linejoin: miter; stroke-miterlimit: 4; fill: rgb(255,255,255); fill-rule: nonzero; opacity: 1;" vector-effect="non-scaling-stroke"  transform=" translate(-23.67, -25)" d="M 8.667 26 L 38.667 26 C 39.219 26 39.667 25.553 39.667 25 C 39.667 24.447 39.219 24 38.667 24 L 8.667000000000002 24 C 8.115000000000002 24 7.667000000000002 24.447 7.667000000000002 25 C 7.667000000000002 25.553 8.114 26 8.667 26 z" stroke-linecap="round" />
</g>
</svg>